<svg width="700" height="700" viewBox="0 0 156 200" fill="none" xmlns="http://www.w3.org/2000/svg">
<path d="M75.3797 0.890381C75.7527 0.941575 76.506 1.03665 76.8863 1.08785C77.6834 4.32772 77.3251 7.84551 78.9267 10.866C81.0038 15.1005 84.9677 18.1283 86.7083 22.5676C87.8273 25.1565 88.1125 28.0381 87.6883 30.8099C90.1237 27.5188 93.2539 24.747 96.6546 22.4871C103.785 17.9747 112.444 17.5505 120.321 15.0712C121.63 14.6251 122.954 14.179 124.344 14.0547C125.309 13.2575 126.252 11.0488 127.708 12.3067C128.827 13.9742 128.256 16.139 127.847 17.9528C126.165 23.1014 123.488 27.8552 120.701 32.4773C116.247 39.864 107.691 43.4476 103.134 50.7611C100.838 54.7542 96.8814 57.4383 94.7678 61.5485C99.3972 59.647 104.224 58.2866 108.861 56.4217C111.911 55.3247 113.351 52.1141 116.021 50.4612C122.332 46.5119 130.121 45.9195 137.325 47.1482C143.454 48.1428 150.731 48.7352 154.753 54.1326C155.609 55.215 156.903 57.4968 154.907 58.155C146.65 57.9064 137.859 55.2516 129.938 58.8059C123.364 61.7167 116.928 64.9566 110.718 68.5914C108.861 69.5567 107.596 71.2681 106.009 72.5845C104.59 73.0087 103.676 74.2301 102.659 75.2174C99.9238 77.9088 96.9179 80.3588 93.4879 82.1213C94.0072 83.1745 93.2392 84.096 92.5956 84.8346C88.9974 88.8278 84.5728 92.2724 79.6361 94.3934C82.993 90.8609 87.447 88.6742 91.1915 85.6099C92.2519 84.7176 92.8736 83.4451 93.1515 82.114C90.738 83.1525 88.3611 84.2788 85.8526 85.0687C87.2787 83.8181 89.0267 83.0794 90.7453 82.3334C93.6342 81.0389 95.7112 78.5304 97.5176 76.0146C91.2719 79.1301 85.9331 83.7449 80.8721 88.4768C78.349 90.8683 77.9467 94.5177 76.2281 97.3626C75.5845 91.446 77.8078 85.6099 77.369 79.6567C77.3324 78.6547 76.7985 78.1867 75.7527 78.2525C74.5021 80.4612 74.6849 83.1086 74.268 85.544C73.4051 91.6215 72.6591 98.1159 74.4143 104.033C75.5406 101.312 77.0033 98.7449 78.7658 96.3826C82.4445 94.4958 85.838 92.0311 89.0559 89.4421C89.3558 89.8956 89.6556 90.3563 89.9628 90.8097C88.7926 90.8244 88.0028 91.8263 87.0886 92.4114C82.8029 95.6586 78.9194 99.5347 76.2719 104.252C74.8312 106.965 75.6869 110.139 75.2042 113.057C75.4675 112.955 75.9867 112.75 76.25 112.655C76.7034 109.452 76.9667 106.073 78.7 103.265C79.68 101.604 81.3256 100.551 82.8468 99.447C79.702 103.096 78.5903 108.099 78.8975 112.816C79.4606 107.331 82.9711 103.001 85.7941 98.4962C88.9755 94.8541 92.5957 91.6142 95.6746 87.877C97.9272 85.3393 100.041 82.3554 103.368 81.1559C108.349 79.1155 113.476 76.8775 118.961 76.8629C123.254 76.6508 127.386 78.3256 131.686 78.0696L131.423 77.3676C131.84 77.1408 132.257 76.9068 132.666 76.6728C132.323 76.3144 131.635 75.5831 131.291 75.2247C125.894 70.939 118.595 71.5021 112.276 72.9356C110.916 73.2866 109.512 73.623 108.393 74.5226C111.421 74.7859 113.885 72.3798 116.95 72.8478C113.286 76.4972 107.917 77.0238 103.208 78.5523C100.355 79.2837 98.6073 81.8142 96.5742 83.7376C94.819 85.7269 92.5883 87.2993 91.1329 89.5372C90.738 89.2081 90.3431 88.8863 89.9482 88.5572C93.5464 86.7946 96.3036 83.6864 98.6585 80.505C101.584 76.8922 105.014 73.6157 109.11 71.3485C116.013 68.7011 123.992 68.4451 130.809 71.5094C133.668 72.6723 133.968 76.4387 136.806 77.5577C135.723 79.6128 133.895 81.5362 131.35 81.2949C125.996 81.0389 120.65 80.2637 115.267 80.5855C108.51 81.3461 102.388 85.2003 98.3148 90.5903C95.9525 93.8302 93.0052 96.6167 89.5386 98.6498C87.425 99.7688 86.2183 101.897 84.4631 103.418C87.1764 103.345 89.9262 103.469 92.6103 103.016C98.2929 101.553 104.144 99.681 110.068 100.617C113.615 101.21 117.249 101.86 120.46 103.557C122.486 104.515 122.998 106.907 123.042 108.94C123.283 115.339 123.056 121.877 121.096 128.021C120.526 129.922 118.515 131.034 118.251 133.067C114.99 148.279 111.581 163.462 107.727 178.535C106.667 182.353 105.687 186.229 104.056 189.849C102.162 193.608 97.9272 195.166 94.1827 196.431C86.0793 198.837 77.5591 199.715 69.134 199.525C61.762 199.386 54.4119 196.95 48.4953 192.533C44.9629 189.754 43.7927 185.168 42.6591 181.036C38.4905 164.998 34.5924 148.872 31.3598 132.621C29.8678 131.253 28.2954 129.813 27.959 127.699C26.7742 122.068 26.4524 116.261 26.4159 110.512C26.1965 106.841 29.2316 103.433 32.8883 103.184C37.0643 102.767 41.5402 101.634 45.5772 103.257C45.5553 103.55 45.5187 104.135 45.4968 104.427C40.3334 103.769 34.585 104.618 30.1969 107.558C35.5139 108.209 40.86 107.236 46.0599 106.168C46.4036 105.495 46.7474 104.822 47.1057 104.15C47.6323 105.517 49.3071 105.283 50.47 105.546C53.6879 105.795 57.0228 106.278 59.8824 107.865C61.0526 109.159 62.0326 110.637 63.3271 111.821C63.2686 109.218 60.7088 108.121 58.8439 106.899C55.1433 103.989 50.1774 103.872 45.7235 103.162L47.0545 102.343C46.6084 102.431 45.7235 102.606 45.2774 102.694C43.0175 101.224 40.2603 100.954 37.9639 99.5859C38.0736 100.032 38.3076 100.939 38.4173 101.392C36.0551 101.027 33.7659 101.817 31.4549 102.16C33.2174 101.283 35.1555 100.705 37.1375 100.734C37.43 100.288 37.7225 99.8419 38.0078 99.4031C34.9215 98.5035 32.4934 96.1047 29.3193 95.3734C22.8396 93.9838 16.177 95.154 9.88007 96.858C8.00051 95.505 9.88007 92.9965 10.6334 91.4241C14.7655 85.8 20.4627 80.3003 27.7981 79.8029C30.8625 79.0789 33.9195 79.9712 36.9473 80.41C42.0814 81.2729 47.1204 82.8966 51.6109 85.5514C53.5855 86.7508 54.8215 88.7547 56.2988 90.4587C62.2812 96.6898 65.1335 105.122 67.7883 113.138C68.3441 113.167 69.4558 113.218 70.0116 113.248C68.5635 107.082 66.4134 101.078 63.9268 95.2637C61.155 91.0292 59.1803 86.3558 56.6791 81.9751C54.0389 78.7718 50.7698 76.095 47.3837 73.7108C45.0799 72.0068 42.1764 71.4144 39.8581 69.7469C45.899 70.4124 51.0038 74.1716 54.9604 78.5743C59.663 82.3992 62.0545 88.0818 65.4041 92.9745C64.4021 90.0491 62.5811 87.2408 62.9687 84.0155C61.6888 82.8234 60.409 81.6313 59.1364 80.4246C59.663 80.3295 60.7088 80.1247 61.2354 80.0297C59.8897 77.1555 58.5294 74.2447 56.7303 71.6265C51.6328 69.6591 46.1696 67.253 40.5967 68.4817C36.9985 69.1984 33.5904 66.2218 30.0361 67.5163C28.1857 67.9551 26.1306 67.4066 24.4339 68.4451C19.8703 70.7635 15.7089 73.8936 12.1838 77.6089C13.705 75.2393 15.9356 73.4841 18.1004 71.7362C20.2945 70.0175 22.6129 68.3208 25.3847 67.7137C22.9639 66.9751 20.7845 68.5109 18.6782 69.469C13.3832 72.1823 9.87276 77.3676 7.85424 82.8307C13.0834 78.8668 19.5266 77.0458 25.9698 76.3144C30.548 75.4295 35.1774 74.9029 39.8361 74.764C44.0268 77.0604 48.978 79.291 50.9965 83.9424C46.8571 82.4212 43.1638 79.8249 38.8781 78.6913C35.8064 77.8576 32.8298 79.5104 29.7581 79.3934C26.4524 79.3056 23.3003 80.4026 20.1263 81.1413C16.4037 82.0116 12.5714 82.8454 9.33156 84.9663C7.58364 85.9463 6.01124 87.526 3.8757 87.4602C4.57779 82.7137 5.57974 77.7552 8.60753 73.8863C10.999 70.9829 13.7343 68.2476 17.1424 66.5582C21.4793 64.1082 26.489 63.5085 31.3013 62.5724C34.0877 62.1409 37.0497 61.5631 39.7776 62.587C34.1609 58.1477 30.1458 51.9897 24.3681 47.7113C20.4627 44.5519 15.5407 43.1624 11.3208 40.5222C8.24916 38.7304 5.86497 36.0317 2.97614 33.9839C2.02538 33.0844 0.292087 32.2506 0.752837 30.6636C1.48419 29.0766 3.41495 29.6836 4.78988 29.4934C9.04634 29.6031 13.1711 28.5061 17.3179 27.7382C21.7133 26.9118 26.1965 27.8552 30.3652 29.274C41.7669 32.3091 52.0862 39.6884 58.2881 49.7738C60.4602 53.138 62.0106 56.8678 64.212 60.2174C64.1169 56.5095 63.9341 52.765 62.976 49.1594C60.3651 38.5475 61.155 27.2336 64.5265 16.8923C66.5962 10.6539 70.9989 5.63684 75.3797 0.890381ZM65.3895 28.6231C66.2013 33.9986 68.2564 39.1326 68.8707 44.5592C69.2437 46.139 70.1652 47.5285 70.7576 49.0351L71.467 48.5963C72.2276 45.5758 72.937 42.5407 73.6391 39.5056C74.2827 37.0556 73.5221 34.6129 73.1857 32.1921C73.4197 29.9908 74.2607 27.8625 73.9682 25.6173C73.4124 21.412 74.5021 17.2507 74.7434 13.06C75.1676 15.5759 75.3504 18.1356 75.014 20.6734C74.5825 23.2989 75.5552 25.9391 74.8678 28.5427C74.151 31.629 74.6337 34.7957 75.3212 37.8381C77.3178 36.4998 79.1608 34.9566 81.1939 33.6694C79.4533 35.7392 76.9155 36.9532 75.1091 38.8913C74.0706 42.2335 73.4562 45.7001 72.5201 49.079C71.7449 51.0317 73.0979 52.999 74.4509 54.3008C76.0233 51.273 76.1549 47.7625 77.3178 44.5812C78.3855 40.5441 81.7717 37.7796 83.5342 34.0936C85.0701 31.4461 85.3407 28.2282 84.7702 25.2736C82.9345 20.8489 78.817 17.9454 76.4694 13.8426C75.2042 11.4364 74.7069 8.71582 74.5972 6.02445C69.1559 12.3214 66.0843 20.3735 65.3895 28.6231ZM115.267 19.8616C107.61 20.9732 99.7409 23.0941 93.7878 28.3013C89.1144 31.9288 87.1105 37.6992 83.4099 42.1385C80.3529 45.9854 79.0511 50.7684 77.6176 55.3759C76.8863 55.5514 76.1549 55.7196 75.4236 55.8951C76.367 62.0824 76.1403 68.3793 77.2958 74.5445C77.464 75.744 78.0345 76.8264 78.7439 77.8137C80.916 71.9702 81.5815 65.5563 84.5216 59.9688C87.0959 55.193 90.248 50.7318 92.3689 45.7221C92.5737 45.7367 92.9906 45.7733 93.2027 45.7952C94.8482 42.5553 97.3202 39.8567 99.5215 37.0044C102.564 33.1063 107.062 30.8538 110.872 27.8406C112.437 26.6777 112.093 24.5276 112.459 22.8309C112.605 23.5256 112.905 24.9079 113.051 25.5954C114.975 23.4379 117.535 21.902 119.268 19.5763C120.08 19.4813 120.892 19.3935 121.711 19.3277C122.362 18.5525 122.976 17.7407 123.466 16.8557C120.723 17.8357 118.207 19.4959 115.267 19.8616ZM119.122 21.2438C116.928 22.7504 114.441 24.1327 113.132 26.5534C115.326 26.6485 117.527 26.6558 119.721 26.7655C121.542 23.9644 123.619 21.2804 124.512 17.982C124.161 22.5968 120.928 19.6934 119.122 21.2438ZM113.117 26.7728C110.375 30.0931 106.469 32.0678 103.186 34.7665C99.0462 38.0137 96.5669 42.7528 93.1442 46.6509C90.504 53.0721 85.7868 58.4475 83.6878 65.1174C82.3568 69.2423 80.6088 73.272 79.8994 77.5723C79.7824 80.9073 79.7824 84.2495 79.68 87.5918C81.1939 86.2681 82.1447 84.4763 83.1027 82.7503C81.523 80.3076 83.388 77.5796 84.7044 75.488C87.1544 72.1238 89.1729 68.4817 90.9647 64.7298C95.2285 58.0087 98.3441 50.527 103.5 44.3837C106.031 41.5973 109.234 39.5641 112.298 37.4286C115.889 34.9274 118.039 30.9196 119.568 26.9264C117.418 26.8167 115.267 26.6997 113.117 26.7728ZM5.31645 32.5651C9.75574 34.4008 13.2662 37.8381 17.6543 39.7762C21.099 41.2316 24.2877 43.9303 28.2223 43.6304C30.6431 43.7328 33.1077 42.9503 35.4846 43.6597C32.881 44.998 29.7508 44.5665 26.9424 45.1516C28.5222 46.6143 30.0946 48.0916 31.8352 49.3642C37.8907 48.0551 44.4436 50.0297 49.0146 54.1618C47.8005 50.154 45.5406 46.4242 42.1911 43.8571C37.2472 40.0687 32.6982 35.2053 26.3501 33.8962C26.0868 33.6475 25.5675 33.1575 25.3042 32.9088C23.293 32.2433 21.2672 31.629 19.3218 30.7952C27.4251 32.0093 34.958 35.8854 40.9551 41.4364C44.0926 44.3764 47.4495 47.4188 48.8098 51.6533C50.3456 56.8313 54.5655 60.6855 55.9331 65.9439C58.9463 66.6898 62.2008 66.5948 64.8922 68.372C64.0584 64.4227 62.113 60.8903 59.5533 57.8113C55.1579 50.9951 50.448 44.018 43.5587 39.4837C40.6918 37.6846 38.037 35.4101 34.7459 34.4081C30.6284 33.2014 26.7523 31.1829 22.4885 30.51C16.5865 29.6616 11.2331 33.45 5.31645 32.5651ZM65.2725 41.8679C66.4646 42.6724 67.5762 43.5938 68.644 44.5665C68.2929 39.7908 65.4041 35.7684 64.5996 31.1097C63.7293 34.6568 63.1881 38.6134 65.2725 41.8679ZM65.0019 42.0653C64.841 45.9195 65.821 49.6787 66.1574 53.4963C66.6181 58.1184 67.3787 62.7113 68.5196 67.2164C69.3899 71.9702 70.3041 76.7167 71.6791 81.3534C72.3885 81.39 73.0979 81.4265 73.8073 81.4558C73.8804 79.6421 74.5898 77.8429 74.1803 76.0146C73.2661 70.9609 72.2056 65.9 72.213 60.7294C71.9497 54.0375 70.7356 46.351 65.0019 42.0653ZM31.9888 49.4593C34.9361 52.4286 37.6933 55.5807 40.37 58.7986C43.2662 62.5138 48.2174 63.2159 52.174 65.3003C53.154 65.6879 54.0316 66.6021 55.1506 66.4119C55.1798 66.1633 55.231 65.666 55.253 65.4173C53.6294 61.607 51.3329 58.1184 48.9853 54.725C44.2608 50.9 38.0224 49.1009 31.9888 49.4593ZM117.308 53.2477C115.428 54.5202 114.441 56.7069 112.627 58.0307C110.316 59.3544 107.522 59.5007 105.233 60.8976C102.476 62.5797 99.5874 64.0424 96.9472 65.9C92.837 68.9351 91.2353 74.1057 87.8565 77.7332C87.8638 77.1774 87.8711 76.0804 87.8711 75.5319C87.7176 75.6781 87.4031 75.9707 87.2422 76.1169C87.2349 77.9234 85.9843 79.3203 85.2968 80.9C86.094 80.3222 86.8253 79.6713 87.4762 78.9399C88.8877 78.4426 90.1164 77.6016 91.2719 76.6655C95.9087 75.1296 100.977 73.2866 103.8 69.0229C105.263 66.9312 106.996 64.8395 109.468 63.94C112.474 62.8868 115.597 61.9215 118.178 59.9834C119.765 58.3964 121.038 56.3998 123.144 55.4051C126.187 53.84 129.412 52.4871 132.783 51.8069C136.272 51.7191 139.775 51.7557 143.264 51.9532C140.397 54.0302 136.813 51.9824 133.654 53.0429C128.271 53.5475 122.881 55.3686 119.144 59.4861C123.532 57.3578 128.073 55.4856 132.864 54.5056C139.263 53.6206 145.662 54.8201 152.01 55.471C150.365 54.5641 148.602 53.8766 146.752 53.5548C146.833 53.2477 146.986 52.6333 147.067 52.3188C141.252 50.549 135.204 49.7152 129.148 49.4154C124.921 49.3788 120.782 50.9 117.308 53.2477ZM56.0282 67.3408C55.9989 67.6333 55.9478 68.2111 55.9258 68.5036C59.1145 70.3247 62.8444 71.0414 66.0331 72.9721C65.8502 71.3705 65.3895 69.8346 64.7166 68.3866C61.9302 67.7649 59.2169 66.6313 56.2988 66.88L56.0282 67.3408ZM58.5075 70.7781C61.0306 75.0053 62.252 79.898 65.2798 83.8327C66.6547 83.2037 68.6952 83.4963 69.5508 82.0262C69.0243 78.8449 67.5908 75.8902 66.0989 73.0599C63.5977 72.2115 61.2573 70.5441 58.5075 70.7781ZM12.8567 93.662C16.1185 92.5211 19.4461 91.5777 22.7445 90.5465C30.4675 88.272 38.6001 89.5591 46.3963 90.7659C49.3071 91.1023 51.5231 93.1428 53.9439 94.5908C52.2398 92.2578 49.2632 91.1901 47.8371 88.6596C51.7352 90.1442 54.7703 93.311 58.7708 94.642C57.4251 91.9433 54.9604 89.8371 52.0277 89.0545C44.4875 87.2115 37.7225 81.975 29.6265 82.7649C22.7079 83.6425 17.6104 89.0545 12.8567 93.662ZM71.4524 82.9331L71.6864 83.0721C70.8819 85.8293 71.2841 88.7035 71.4524 91.5045C70.231 98.467 70.7941 105.598 71.6571 112.567C71.818 113.386 73.054 112.633 73.6464 112.779C73.778 110.885 74.6118 108.772 73.4197 107.053C72.8639 102.131 71.5401 97.2017 72.0228 92.2139C72.8785 88.8863 72.937 85.4416 73.4416 82.0555C72.9443 82.2749 71.9497 82.7137 71.4524 82.9331ZM65.9307 86.9775C66.3549 89.5299 67.4519 91.9141 67.9858 94.4445C67.8102 96.7117 67.898 99.2203 69.3534 101.1C69.4338 99.6006 69.4119 98.094 69.5582 96.5947C70.2091 92.3383 68.5416 88.2208 68.0882 84.0301C66.9034 84.4836 65.7039 85.5952 65.9307 86.9775ZM22.2033 91.841C29.0634 91.8483 35.9234 91.9799 42.7688 92.448C46.411 92.8429 49.7532 94.3568 53.0516 95.8561C50.5797 94.1666 48.0126 92.3748 44.9921 91.8702C37.4227 91.1827 29.6923 89.6323 22.2033 91.841ZM36.3257 95.5928C38.6367 97.465 41.5109 98.3426 44.078 99.7688C47.764 101.809 51.9985 102.416 55.9404 103.799C58.5075 104.384 60.4163 106.314 62.8224 107.272C63.8098 108.838 64.3144 110.622 64.9945 112.333C65.2725 112.392 65.821 112.502 66.0989 112.56C65.1554 110.117 64.0877 107.719 63.2027 105.254C62.6762 103.937 62.2227 102.446 60.9429 101.656C60.9063 100.361 60.6576 99.0959 59.9044 98.0135C59.9775 98.9131 60.1384 100.705 60.2188 101.597C58.6757 99.6883 57.3739 97.1579 54.7337 96.6532C56.7084 98.7595 58.1784 101.334 60.4748 103.126C61.6011 104.033 62.3617 105.276 63.1662 106.453L61.9521 106.578C60.2188 104.83 58.4417 103.111 56.5987 101.48C54.251 101.107 52.4738 99.3592 50.2871 98.5474C47.742 97.1067 44.6703 97.7137 42.0082 96.6313C40.2164 95.8634 38.2784 95.5416 36.3257 95.5928ZM93.6122 103.499C101.789 105.663 110.309 106.344 118.734 106.563C116.05 104.084 112.181 103.557 108.671 103.506C103.654 103.564 98.622 103.016 93.6122 103.499ZM84.4045 105.854C82.4592 107.616 81.4353 110.286 81.2085 112.86C85.114 112.165 89.1071 112.626 93.0272 112.034C93.0491 112.531 93.3709 113.445 92.5518 113.452C84.7629 113.906 76.9887 114.674 69.1779 114.403C58.1491 114.549 47.2374 112.677 36.5012 110.388C36.9766 110.088 37.4666 109.796 37.9566 109.518C44.0926 111.178 50.448 111.865 56.7669 112.516C58.3539 112.655 59.9921 112.962 61.5353 112.348C60.1091 110.776 59.0414 108.443 56.7522 107.996C53.4246 107.148 49.9361 107.075 46.528 107.236C43.1638 107.799 39.8142 108.479 36.3915 108.523C36.4573 108.947 36.5889 109.788 36.6621 110.205C34.4388 109.218 31.9741 109.108 29.5826 109.159C31.7474 111.309 34.8044 111.99 37.6713 112.648C61.5353 117.994 86.7961 118.191 110.47 111.741C112.869 110.995 115.545 110.52 117.381 108.655C114.997 108.194 112.605 107.755 110.17 107.711C101.533 107.58 93.0783 104.406 84.4045 105.854ZM104.348 114.776C84.8507 118.945 64.6508 118.425 45.0068 115.588C39.7337 114.579 34.0146 114.103 29.6046 110.724C29.2974 115.047 29.7801 119.369 30.3871 123.647C30.8479 125.476 30.9283 127.611 32.1497 129.125C35.2945 130.785 38.8122 131.502 42.2496 132.285C50.3529 134.142 58.6757 134.749 66.9619 135.078C82.4592 135.605 98.2124 134.676 113.139 130.215C115.443 129.198 118.639 127.977 118.895 125.088C119.846 119.464 119.97 113.759 120.168 108.07C115.882 112.143 109.907 113.438 104.348 114.776ZM80.9306 136.541C65.3748 136.899 49.585 136.183 34.5412 131.882C37.4812 148.286 41.3208 164.515 45.5772 180.619C46.5792 184.145 47.5299 188.108 50.6455 190.398C56.0063 194.259 62.5591 196.519 69.1852 196.541C77.2812 196.614 85.4723 195.89 93.2539 193.579C96.6327 192.358 100.626 190.873 101.979 187.202C104.202 181.556 105.701 175.646 107.011 169.73C110.068 156.88 112.671 143.928 115.267 130.968C104.202 134.61 92.5152 135.934 80.9306 136.541Z" fill="#b7e4c7"/>
<path d="M9.84277 33.6908C12.3367 34.5611 14.6039 36.2066 17.2806 36.4699C20.1255 36.3456 22.7072 34.9341 25.5156 34.5392C22.3342 36.1335 18.5093 38.3641 14.9256 36.7551C13.0973 35.9872 11.342 34.9999 9.84277 33.6908Z" fill="#b7e4c7"/>
<path d="M146.496 53.0508C146.576 54.2429 141.493 53.3434 143.965 52.4292C144.594 52.5901 145.859 52.8973 146.496 53.0508Z" fill="#b7e4c7"/>
<path d="M118.187 75.2764C119.474 73.9234 121.141 73.0823 122.794 72.2705C125.288 73.4041 127.987 73.9599 130.429 75.2105C130.934 75.7956 131.351 76.4977 130.963 77.2656C129.084 75.9931 127.094 74.662 124.769 74.4426C122.516 73.9234 120.403 75.1155 118.187 75.2764Z" fill="#b7e4c7"/>
<path d="M91.1844 74.267C92.0913 73.2285 94.278 74.6108 92.7422 75.5615C91.7987 76.6512 89.8826 75.3348 91.1844 74.267Z" fill="#b7e4c7"/>
<path d="M127.655 96.8936C130.376 96.9741 133.001 96.1184 135.707 95.9356C135.188 97.8517 133.923 99.5631 131.795 99.7459C122.901 100.923 113.986 98.488 105.078 99.4241C98.8035 99.3437 92.9527 102.086 86.6924 102.108L87.2043 101.077C90.5027 100.309 93.9108 99.9434 97.0556 98.6123C102.329 96.3817 108.136 95.8405 113.811 95.8771C118.448 95.8551 123.004 97.0399 127.655 96.8936Z" fill="#b7e4c7"/>
<path d="M83.4674 110.63C83.8623 109.211 84.8935 108.304 86.2246 107.792C85.9979 108.845 85.7346 109.884 85.5152 110.944C87.9067 109.416 90.5249 107.96 93.5088 108.107C94.1085 108.546 94.6424 109.05 95.1032 109.643C93.7209 110.644 91.9876 110.133 90.4152 110.235C88.5942 110.25 86.9998 111.222 85.3397 111.822C84.6961 111.442 84.0744 111.047 83.4674 110.63Z" fill="#b7e4c7"/>
<path d="M96.0397 107.99C96.5736 108.97 96.6467 110.088 96.7052 111.185C102.563 110.681 108.312 109.211 114.228 109.101C110.184 110.959 105.613 110.849 101.327 111.8C99.2723 112.495 97.1148 112.824 94.9792 113.167C94.4234 112.765 93.8676 112.37 93.3118 111.968C93.97 111.793 95.2937 111.434 95.9592 111.259C96.0397 110.169 96.069 109.079 96.0397 107.99Z" fill="#b7e4c7"/>
</svg>
